<?xml version="1.0" encoding="UTF-8"?>
<svg width="232px" height="233px" viewBox="0 0 232 233" version="1.1" xmlns="http://www.w3.org/2000/svg" xmlns:xlink="http://www.w3.org/1999/xlink">
    <!-- Generator: Sketch 62 (91390) - https://sketch.com -->
    <title>proper</title>
    <desc>Created with Sketch.</desc>
    <g id="Page-1" stroke="none" stroke-width="1" fill="none" fill-rule="evenodd">
        <g id="proper" fill="#000000" fill-rule="nonzero">
            <g id="Group" transform="translate(116.000000, 116.500000) scale(-1, 1) rotate(-180.000000) translate(-116.000000, -116.500000) ">
                <path d="M75.2,192.7 C53.1,170.6 35,152.2 35,151.7 C35,150.4 114.8,71 116.2,71 C117.6,71 126,79.3 126,80.7 C126,81.2 110.5,97 91.5,116 C72.5,135 57,151 57,151.7 C57,153.3 114.5,211 116,211 C116.7,211 140.8,187.4 169.7,158.5 C198.5,129.6 222.3,106 222.6,106 C223.9,106 232,114.5 232,115.9 C232,117.3 117.4,233 116,233 C115.7,233 97.4,214.9 75.2,192.7 Z" id="Path"></path>
                <path d="M92.8,175.2 C80.8,163.2 71,152.8 71,152 C71,151.2 86.1,135.4 104.6,117 C123,98.6 138.6,82.7 139.1,81.7 C139.9,80.2 138.2,78.1 128.5,68.5 C122.2,62.2 116.5,57 116,57 C115.5,57 95.5,76.6 71.6,100.5 C47.6,124.4 27.7,144 27.2,144 C26.8,144 24.2,141.7 21.5,139 L16.5,134 L65.5,85 C92.5,58 115.2,36 116,36 C117.9,36 161,79 161,80.9 C161,81.6 145.5,97.7 126.5,116.7 C107.5,135.6 92,151.4 92,151.8 C92,153.2 114.6,175 116,175 C116.8,175 137.1,155.4 161.1,131.4 L204.8,87.7 L209.9,92.5 C212.7,95.1 215,97.8 215,98.4 C215,100.1 117.7,197 116,197 C115.2,196.9 104.7,187.1 92.8,175.2 Z" id="Path"></path>
                <path d="M110.2,156.7 C107.9,154.4 106,152.1 106,151.7 C106,151.3 121.5,135.5 140.5,116.5 C159.5,97.5 175,81.4 175,80.7 C175,78.9 117.8,22 116,22 C115.2,22 91.1,45.4 62.5,74 C33.9,102.6 10,126 9.5,126 C7.9,126 0,117.6 0,116 C0,114 114.1,0 116,0 C117.6,0 197,78.9 197,80.5 C197,82.2 117.6,161 116,161 C115.1,161 112.5,159.1 110.2,156.7 Z" id="Path"></path>
            </g>
        </g>
    </g>
</svg>